<svg width="40" height="40" viewBox="0 0 40 40" fill="none" xmlns="http://www.w3.org/2000/svg">
<g clip-path="url(#clip0)">
<path d="M18.6359 30.1251V23.7656C18.6359 23.6163 18.6072 23.4686 18.5516 23.3304L16.893 19.1821L19.6899 19.8819C19.8767 19.928 20.072 19.928 20.2585 19.8819L23.0554 19.1821L21.3968 23.3304C21.3416 23.4686 21.3126 23.6163 21.3126 23.7656V30.1251H18.6359Z" fill="#5F4BB6"/>
<path d="M27.4219 32.4688C27.4219 33.8732 26.3055 35.0164 24.9118 35.06H15.0366C13.6429 35.0164 12.5266 33.8732 12.5266 32.4688H27.4219Z" fill="#5F4BB6"/>
<path d="M33.6984 13.7244C33.6984 16.8741 32.6022 19.9515 30.6134 22.3898C28.8062 24.5929 27.7148 27.3022 27.4765 30.1251H23.6563V23.9914L26.0828 17.9251C26.2469 17.5165 26.1673 17.0508 25.878 16.7188C25.5884 16.3876 25.1376 16.246 24.711 16.3522L19.9744 17.5366L15.2374 16.3522C14.8108 16.246 14.36 16.3876 14.0704 16.7188C13.7811 17.0508 13.7015 17.5165 13.8657 17.9251L16.2921 23.9914V30.1251H12.4774C12.2391 27.3016 11.1469 24.5914 9.34052 22.3898C7.34772 19.9539 6.25 16.8765 6.25 13.7244C6.25 6.15631 12.4069 0 19.9744 0C27.5415 0 33.6984 6.15631 33.6984 13.7244Z" fill="#5F4BB6"/>
<path d="M15.629 37.4062C16.4645 38.9495 18.0988 39.9999 19.9744 39.9999C21.8491 39.9999 23.4833 38.9495 24.3188 37.4062H15.629Z" fill="#5F4BB6"/>
</g>
<defs>
<clipPath id="clip0">
<rect width="40" height="40" fill="white"/>
</clipPath>
</defs>
</svg>
