<svg width="29" height="22" viewBox="0 0 29 22" fill="none" xmlns="http://www.w3.org/2000/svg">
<g clip-path="url(#clip0)">
<path d="M28.0363 21.7015V21.758H28.0891C28.099 21.7582 28.1087 21.7557 28.1173 21.7508C28.1208 21.7484 28.1236 21.7451 28.1254 21.7414C28.1273 21.7376 28.1281 21.7334 28.128 21.7292C28.1281 21.7251 28.1273 21.721 28.1254 21.7173C28.1235 21.7136 28.1208 21.7104 28.1173 21.7081C28.1088 21.703 28.099 21.7005 28.0891 21.7009H28.0363V21.7015ZM28.0896 21.6615C28.1122 21.6601 28.1346 21.6666 28.153 21.6798C28.1603 21.6859 28.1662 21.6935 28.17 21.7022C28.1739 21.7109 28.1756 21.7204 28.1752 21.7299C28.1755 21.7381 28.1741 21.7462 28.171 21.7538C28.168 21.7614 28.1633 21.7682 28.1574 21.7739C28.1432 21.7862 28.1254 21.7936 28.1067 21.7949L28.1774 21.8755H28.123L28.058 21.7955H28.0369V21.8755H27.9914V21.6616H28.0903L28.0896 21.6615ZM28.0755 21.9493C28.0994 21.9496 28.123 21.9447 28.1449 21.9352C28.166 21.9261 28.1852 21.9131 28.2015 21.8969C28.2178 21.8807 28.2308 21.8615 28.2398 21.8403C28.2583 21.7955 28.2583 21.7452 28.2398 21.7003C28.2306 21.6793 28.2176 21.6601 28.2015 21.6438C28.1852 21.6276 28.166 21.6146 28.1449 21.6055C28.1229 21.5965 28.0993 21.5919 28.0755 21.5922C28.0513 21.592 28.0273 21.5965 28.0048 21.6055C27.9832 21.6144 27.9636 21.6274 27.947 21.6438C27.922 21.6694 27.9051 21.7019 27.8983 21.7371C27.8916 21.7723 27.8954 21.8087 27.9092 21.8417C27.9178 21.863 27.9307 21.8822 27.947 21.8983C27.9636 21.9147 27.9832 21.9277 28.0048 21.9366C28.0271 21.9461 28.0512 21.951 28.0755 21.9507V21.9493ZM28.0755 21.5407C28.1376 21.5407 28.1973 21.565 28.2416 21.6086C28.263 21.6295 28.28 21.6544 28.2917 21.682C28.3038 21.7102 28.31 21.7407 28.31 21.7714C28.31 21.8021 28.3038 21.8326 28.2917 21.8608C28.2797 21.8882 28.2628 21.9131 28.2416 21.9342C28.2199 21.955 28.1947 21.9718 28.1671 21.9837C28.1381 21.996 28.107 22.0022 28.0755 22.0021C28.0437 22.0023 28.0121 21.996 27.9827 21.9837C27.9548 21.972 27.9294 21.9553 27.9077 21.9342C27.8865 21.9123 27.8698 21.8866 27.8583 21.8584C27.8462 21.8302 27.84 21.7997 27.84 21.769C27.84 21.7383 27.8462 21.7078 27.8583 21.6796C27.87 21.652 27.887 21.6271 27.9084 21.6062C27.9298 21.5848 27.9553 21.5679 27.9835 21.5567C28.0128 21.5443 28.0444 21.5381 28.0762 21.5383L28.0755 21.5407ZM6.42616 20.7146C6.42616 20.3067 6.69339 19.9716 7.13013 19.9716C7.54751 19.9716 7.82916 20.2923 7.82916 20.7146C7.82916 21.1369 7.54751 21.4576 7.13013 21.4576C6.69339 21.4576 6.42616 21.1225 6.42616 20.7146ZM8.30493 20.7146V19.5538H7.80031V19.8366C7.64026 19.6276 7.3975 19.4965 7.06736 19.4965C6.41697 19.4965 5.90656 20.0067 5.90656 20.7152C5.90656 21.4237 6.41669 21.9338 7.06736 21.9338C7.39736 21.9338 7.64026 21.8026 7.80031 21.5937V21.8755H8.30436V20.7146H8.30493ZM25.3552 20.7146C25.3552 20.3067 25.6224 19.9716 26.0593 19.9716C26.4771 19.9716 26.7583 20.2923 26.7583 20.7146C26.7583 21.1369 26.4771 21.4576 26.0593 21.4576C25.6226 21.4576 25.3552 21.1225 25.3552 20.7146ZM27.2345 20.7146V18.6221H26.7295V19.8366C26.5694 19.6276 26.3267 19.4965 25.9965 19.4965C25.3461 19.4965 24.8357 20.0067 24.8357 20.7152C24.8357 21.4237 25.3459 21.9338 25.9965 21.9338C26.3267 21.9338 26.5694 21.8026 26.7295 21.5937V21.8755H27.2345V20.7146ZM14.5679 19.9477C14.893 19.9477 15.1019 20.1516 15.1552 20.5106H13.9511C14.005 20.1755 14.2084 19.9477 14.568 19.9477H14.5679ZM14.578 19.4953C13.898 19.4953 13.4222 19.9901 13.4222 20.7139C13.4222 21.4518 13.917 21.9325 14.6118 21.9325C14.9613 21.9325 15.2814 21.8453 15.5631 21.6073L15.3158 21.2333C15.1212 21.3889 14.8735 21.4761 14.6407 21.4761C14.3155 21.4761 14.0194 21.3255 13.9466 20.9077H15.6697C15.6746 20.845 15.6797 20.7816 15.6797 20.7137C15.6746 19.9903 15.2273 19.4951 14.5777 19.4951L14.578 19.4953ZM20.6702 20.7137C20.6702 20.3058 20.9374 19.9708 21.3741 19.9708C21.7915 19.9708 22.0732 20.2914 22.0732 20.7137C22.0732 21.1361 21.7915 21.4567 21.3741 21.4567C20.9374 21.4567 20.67 21.1217 20.67 20.7137H20.6702ZM22.5488 20.7137V19.5538H22.0444V19.8366C21.8838 19.6276 21.6416 19.4965 21.3115 19.4965C20.6611 19.4965 20.1507 20.0067 20.1507 20.7152C20.1507 21.4237 20.6608 21.9338 21.3115 21.9338C21.6416 21.9338 21.8838 21.8026 22.0444 21.5937V21.8755H22.5489V20.7146L22.5488 20.7137ZM17.8205 20.7137C17.8205 21.4177 18.3105 21.9324 19.0585 21.9324C19.408 21.9324 19.6409 21.8546 19.8927 21.6557L19.6503 21.2478C19.4609 21.3839 19.2619 21.4567 19.0424 21.4567C18.6395 21.4518 18.3433 21.1605 18.3433 20.7137C18.3433 20.267 18.6395 19.9759 19.0424 19.9708C19.2614 19.9708 19.4603 20.0436 19.6503 20.1797L19.8927 19.7718C19.6404 19.5729 19.4076 19.4951 19.0585 19.4951C18.3105 19.4951 17.8205 20.0096 17.8205 20.7137ZM24.3257 19.4951C24.0346 19.4951 23.845 19.6313 23.714 19.8352V19.5538H23.2139V21.8743H23.719V20.5735C23.719 20.1895 23.884 19.9761 24.2139 19.9761C24.3219 19.9746 24.4292 19.9944 24.5295 20.0345L24.685 19.5589C24.5733 19.5149 24.4277 19.4956 24.3255 19.4956L24.3257 19.4951ZM10.7997 19.7383C10.557 19.5783 10.2224 19.4956 9.85341 19.4956C9.26552 19.4956 8.88702 19.7773 8.88702 20.2384C8.88702 20.6168 9.16881 20.8502 9.6877 20.923L9.92608 20.9569C10.2028 20.9958 10.3334 21.0686 10.3334 21.1997C10.3334 21.3791 10.1496 21.4815 9.80449 21.4815C9.45498 21.4815 9.20274 21.3698 9.03265 21.2387L8.79554 21.6322C9.07224 21.8361 9.42175 21.9334 9.80025 21.9334C10.4704 21.9334 10.8588 21.6178 10.8588 21.1759C10.8588 20.768 10.5531 20.5547 10.0481 20.4819L9.81028 20.4474C9.59184 20.4191 9.4168 20.3751 9.4168 20.2196C9.4168 20.0499 9.5818 19.9479 9.85864 19.9479C10.1548 19.9479 10.4416 20.0596 10.5821 20.1468L10.8006 19.7389L10.7997 19.7383ZM17.3108 19.496C17.0197 19.496 16.8301 19.6321 16.6996 19.836V19.5538H16.1995V21.8743H16.7041V20.5735C16.7041 20.1895 16.8691 19.9761 17.1989 19.9761C17.307 19.9746 17.4142 19.9944 17.5145 20.0345L17.67 19.5589C17.5583 19.5149 17.4127 19.4956 17.3105 19.4956L17.3108 19.496ZM13.0047 19.5538H12.1795V18.8498H11.6694V19.5538H11.1987V20.015H11.6694V21.0736C11.6694 21.612 11.8784 21.9326 12.4753 21.9326C12.6943 21.9326 12.9466 21.8648 13.1066 21.7532L12.9608 21.3211C12.8103 21.4084 12.6453 21.4524 12.514 21.4524C12.2618 21.4524 12.1795 21.2968 12.1795 21.064V20.0154H13.0047V19.5538ZM5.46034 21.8748V20.4185C5.46034 19.8701 5.11083 19.5011 4.5474 19.4961C4.25119 19.4912 3.94565 19.5834 3.73173 19.909C3.57168 19.6517 3.31944 19.4961 2.96484 19.4961C2.71699 19.4961 2.47479 19.5689 2.28519 19.8407V19.5538H1.78015V21.8743H2.28915V20.5876C2.28915 20.1848 2.51254 19.9708 2.85753 19.9708C3.19262 19.9708 3.36214 20.1892 3.36214 20.5825V21.874H3.87227V20.5873C3.87227 20.1845 4.10514 19.9705 4.44008 19.9705C4.78465 19.9705 4.94908 20.1889 4.94908 20.5823V21.8737L5.46034 21.8748Z" fill="white"/>
<path d="M28.324 14.1562V13.8169H28.2357L28.1335 14.0497L28.0318 13.8169H27.9431V14.1562H28.0059V13.9006L28.1015 14.1211H28.1665L28.2621 13.9V14.1562H28.3243H28.324ZM27.7634 14.1562V13.875H27.8766V13.8177H27.5876V13.875H27.7007V14.1562H27.7629H27.7634Z" fill="#F79410"/>
<path d="M18.2804 15.6116H10.6332V1.86865H18.2805L18.2804 15.6116Z" fill="#FF5F00"/>
<path d="M11.1179 8.73971C11.1179 5.95196 12.4232 3.46862 14.4558 1.86825C12.9172 0.655063 11.0143 -0.00337383 9.05492 -0.000478775C4.22835 -0.000478775 0.315857 3.91258 0.315857 8.73971C0.315857 13.5668 4.22835 17.4799 9.05492 17.4799C11.0143 17.4828 12.9173 16.8244 14.4559 15.6112C12.4235 14.0111 11.1179 11.5276 11.1179 8.73971Z" fill="#EB001B"/>
<path d="M28.5971 8.7402C28.5971 13.5673 24.6846 17.4804 19.858 17.4804C17.8984 17.4833 15.9952 16.8248 14.4563 15.6117C16.4895 14.0113 17.7948 11.5281 17.7948 8.7402C17.7948 5.95231 16.4895 3.46911 14.4563 1.86874C15.9952 0.655588 17.8983 -0.0028348 19.8579 9.17461e-06C24.6844 9.17461e-06 28.5969 3.91307 28.5969 8.7402" fill="#F79E1B"/>
</g>
<defs>
<clipPath id="clip0">
<rect width="28.2776" height="22" fill="white" transform="translate(0.315857)"/>
</clipPath>
</defs>
</svg>
