<svg width="77" height="14" viewBox="0 0 77 14" fill="none" xmlns="http://www.w3.org/2000/svg">
<path d="M71.3216 6.01768C70.8889 6.31925 70.261 6.46833 69.4018 6.46833H69.0289H68.5498L69.2032 2.93954H69.5343H69.8297C70.5429 2.93954 71.0638 3.05432 71.4228 3.28729C71.7033 3.47 72.0358 3.83167 72.0358 4.518C72.0358 5.34493 71.649 5.78981 71.3216 6.01768ZM20.4928 10.4464H13.8988L14.325 8.13985H18.461L18.931 5.5419H14.8347L15.2307 3.2591H21.8132L20.4928 10.4464ZM74.8738 1.27923C73.9043 0.614631 72.4372 0.279785 70.5137 0.279785H65.476L63.6035 10.4468H57.0044L57.4275 8.14019H61.4032L61.8759 5.54937L57.9026 5.5565L58.3281 3.25978H62.4223L62.9671 0.280125H54.6502L52.8728 9.92513H49.8231L51.6135 0.280125H47.2656L45.4881 9.92513H42.5146L44.3067 0.280125H39.9632L38.0859 10.4471H31.4399L31.8586 8.14053H35.8523L36.3227 5.56466L32.3351 5.56092L32.7585 3.25978H36.8983L37.4403 0.280125H11.5297L10.0549 8.33716L7.11662 0.279785H2.60706L0.179932 13.4281H4.48641L5.95519 5.14966L8.80682 13.4281H24.2424L26.1187 3.25944H28.5339L26.6566 13.4281H67.2722L68.4486 7.00864L70.3554 13.4281H74.6643L72.6902 8.18298L73.1408 8.08551C74.1338 7.87292 74.9112 7.4148 75.4505 6.72847C75.9908 6.03568 76.2652 5.14627 76.2652 4.07788C76.2655 2.83358 75.8111 1.9187 74.8738 1.27923Z" fill="#8DC640"/>
</svg>
