<svg width="50" height="17" viewBox="0 0 50 17" fill="none" xmlns="http://www.w3.org/2000/svg">
<path d="M21.5582 16.2643H17.5004L20.0365 0.678401H24.0947L21.5582 16.2643ZM14.0867 0.678401L10.2181 11.3985L9.76037 9.09006L9.76079 9.0909L8.39539 2.08173C8.39539 2.08173 8.2303 0.678401 6.4705 0.678401H0.0750446L0 0.942307C0 0.942307 1.95574 1.34922 4.2446 2.72378L7.77002 16.2647H11.9979L18.4539 0.678401H14.0867ZM46.0035 16.2643H49.7295L46.4809 0.677984H43.219C41.7126 0.677984 41.3458 1.83951 41.3458 1.83951L35.2938 16.2643H39.5238L40.3698 13.9492H45.5282L46.0035 16.2643ZM41.5384 10.751L43.6705 4.91842L44.8699 10.751H41.5384ZM35.6111 4.42646L36.1902 1.07947C36.1902 1.07947 34.4033 0.399902 32.5405 0.399902C30.5268 0.399902 25.7448 1.28001 25.7448 5.55963C25.7448 9.58619 31.3573 9.63622 31.3573 11.7512C31.3573 13.8662 26.3231 13.4873 24.6617 12.1535L24.0584 15.6531C24.0584 15.6531 25.8703 16.5332 28.6386 16.5332C31.4078 16.5332 35.5853 15.0995 35.5853 11.1971C35.5853 7.14474 29.9223 6.76743 29.9223 5.00555C29.9227 3.24326 33.8747 3.46964 35.6111 4.42646Z" fill="white"/>
<path d="M9.76092 9.09066L8.39552 2.08154C8.39552 2.08154 8.23042 0.678223 6.47062 0.678223H0.0751365L9.15527e-05 0.942127C9.15527e-05 0.942127 3.07401 1.57917 6.02244 3.96598C8.84162 6.24732 9.76092 9.09066 9.76092 9.09066Z" fill="#E6A540"/>
</svg>
