<svg width="18" height="18" viewBox="0 0 18 18" fill="none" xmlns="http://www.w3.org/2000/svg">
<path d="M18 6.2005C18 10.743 8.99977 16.7763 8.99977 16.7763C8.99977 16.7763 0 10.9605 0 6.2005C0 2.77886 2.22862 1.22369 4.97684 1.22369C6.24925 1.22369 7.40657 1.70476 8.28524 2.49084L5.99322 5.81823C5.93598 5.90133 5.91485 6.00437 5.93479 6.10342C5.95469 6.20222 6.0139 6.28935 6.09893 6.34391L9.50991 8.53582L7.94015 10.4305C7.86116 10.5258 7.83456 10.6539 7.86918 10.7727L8.7474 13.8018C8.79444 13.9645 8.94328 14.0712 9.10549 14.0712C9.13439 14.0712 9.16408 14.0675 9.19335 14.0607C9.38743 14.014 9.51016 13.8228 9.4725 13.6268L8.939 10.8707L11.1781 8.62052C11.2534 8.54483 11.2925 8.44031 11.286 8.3341C11.2794 8.22728 11.2274 8.12872 11.143 8.06302L8.19363 5.76355L11.3992 1.9138C11.4644 1.83543 11.4945 1.73359 11.4828 1.63236C11.477 1.58034 11.4597 1.53076 11.4337 1.48631C11.9324 1.31728 12.4659 1.22369 13.0222 1.22369C15.7714 1.22369 18 3.45228 18 6.2005Z" fill="white"/>
</svg>
