<svg width="32" height="32" viewBox="0 0 32 32" fill="none" xmlns="http://www.w3.org/2000/svg">
<g clip-path="url(#clip0)">
<path d="M30.3492 8.44013H19.3153C19.624 8.30057 19.9419 8.15076 20.2624 7.99151C23.1376 6.56326 24.7343 5.11026 25.0081 3.67289C25.1388 2.9867 25.0313 1.95108 23.7763 0.914332C22.7407 0.0589587 21.6834 -0.197916 20.6336 0.150834C19.1884 0.630895 17.8622 2.27708 16.6918 5.04376C16.4195 5.68751 16.1885 6.31445 16 6.87038C15.8114 6.31438 15.5805 5.68751 15.3082 5.04376C14.1377 2.27708 12.8115 0.630895 11.3664 0.150834C10.3165 -0.198041 9.2593 0.0590212 8.22368 0.914395C6.96868 1.95114 6.86105 2.9867 6.99187 3.67295C7.26574 5.11026 8.86242 6.56326 11.7375 7.99157C12.058 8.15082 12.376 8.30057 12.6846 8.44019H1.65075C1.30325 8.44019 1.02138 8.72194 1.02138 9.06957V14.8357C1.02138 15.1832 1.30319 15.4651 1.65075 15.4651H3.85287V31.3706C3.85287 31.7182 4.13468 32 4.48225 32H13.117H18.883H27.5178C27.8654 32 28.1472 31.7182 28.1472 31.3706V15.465H30.3493C30.6968 15.465 30.9787 15.1832 30.9787 14.8356V9.0695C30.9786 8.72194 30.6968 8.44013 30.3492 8.44013ZM2.28013 14.2063V9.69888H12.4876V14.2063H2.28013ZM12.4877 30.7412H5.11162V15.465H12.4876V30.7412H12.4877ZM12.285 6.85795C9.8593 5.65126 8.41855 4.43639 8.2283 3.43708C8.19199 3.24608 8.0813 2.66477 9.02542 1.88471C9.52936 1.46846 10.0049 1.26227 10.4667 1.26227C10.6358 1.26227 10.803 1.28996 10.9691 1.34508C12.8412 1.96652 14.3515 5.72795 15.0679 8.06619C14.3287 7.78469 13.3117 7.36869 12.285 6.85795ZM18.2537 30.7412H13.7464V9.69888H18.2537V30.7412ZM16.9314 8.06657C17.6467 5.72889 19.1558 1.96802 21.0304 1.34533C21.1966 1.29014 21.364 1.26246 21.5333 1.26246C21.995 1.26246 22.4708 1.46864 22.9745 1.88483C23.9187 2.66477 23.808 3.24614 23.7716 3.4372C23.5815 4.43645 22.1407 5.65139 19.7148 6.85813C18.688 7.36895 17.6708 7.78507 16.9314 8.06657ZM26.8884 30.7412H19.5124V15.465H26.8884V30.7412ZM29.7198 14.2063H19.5123V9.69888H29.7198V14.2063Z" fill="white"/>
<path d="M24.4222 22.7212C23.6123 22.7212 23.611 23.9799 24.4222 23.9799C25.2321 23.9799 25.2335 22.7212 24.4222 22.7212Z" fill="white"/>
<path d="M24.4222 24.7349C24.0747 24.7349 23.7928 25.0166 23.7928 25.3642V29.2452C23.7928 29.5928 24.0746 29.8746 24.4222 29.8746C24.7698 29.8746 25.0516 29.5929 25.0516 29.2452V25.3642C25.0516 25.0166 24.7698 24.7349 24.4222 24.7349Z" fill="white"/>
</g>
<defs>
<clipPath id="clip0">
<rect width="32" height="32" fill="white"/>
</clipPath>
</defs>
</svg>
