<svg width="18" height="18" viewBox="0 0 18 18" fill="none" xmlns="http://www.w3.org/2000/svg">
<circle cx="9" cy="9" r="8.3" fill="#E5383B" stroke="url(#paint0_linear)" stroke-width="1.4"/>
<g clip-path="url(#clip0)">
<path d="M11.2954 5.25311L8.81592 7.73257L6.33646 5.2531C6.06273 4.97937 5.61841 4.97937 5.34467 5.2531L5.0141 5.58368C4.74036 5.85741 4.74036 6.30173 5.0141 6.57547L7.49356 9.05493L5.0141 11.5344C4.74036 11.8081 4.74036 12.2524 5.0141 12.5262L5.34467 12.8568C5.61841 13.1305 6.06273 13.1305 6.33646 12.8568L8.81592 10.3773L11.2954 12.8568C11.5691 13.1305 12.0134 13.1305 12.2872 12.8568L12.6178 12.5262C12.8915 12.2524 12.8915 11.8081 12.6178 11.5344L10.1383 9.05493L12.6178 6.57547C12.8915 6.30173 12.8915 5.85741 12.6178 5.58368L12.2872 5.25311C12.0134 4.97937 11.5691 4.97937 11.2954 5.25311Z" fill="white"/>
</g>
<defs>
<linearGradient id="paint0_linear" x1="9" y1="0" x2="9" y2="18" gradientUnits="userSpaceOnUse">
<stop stop-color="white" stop-opacity="0.53"/>
<stop offset="1" stop-opacity="0"/>
<stop offset="1" stop-opacity="0.17"/>
</linearGradient>
<clipPath id="clip0">
<rect width="10.2857" height="10.2857" fill="white" transform="translate(1.54285 9.05493) rotate(-45)"/>
</clipPath>
</defs>
</svg>
