<svg width="16" height="16" viewBox="0 0 16 16" fill="none" xmlns="http://www.w3.org/2000/svg">
<path d="M0.255743 11.9347L0.779844 12.4625C0.944789 12.6273 1.16424 12.7181 1.39878 12.7181C1.63318 12.7181 1.85289 12.6273 2.01784 12.4625L7.99642 6.48365L13.9819 12.4691C14.1466 12.6339 14.3663 12.7246 14.6007 12.7246C14.8351 12.7246 15.055 12.6339 15.2198 12.4691L15.744 11.9446C16.0853 11.6036 16.0853 11.048 15.744 10.7069L8.61757 3.55484C8.45288 3.39016 8.23343 3.27413 7.99694 3.27413H7.99421C7.75967 3.27413 7.54022 3.39029 7.37554 3.55484L0.255743 10.6875C0.0907984 10.8522 0.000260353 11.0783 0 11.3127C0 11.5472 0.0907984 11.7702 0.255743 11.9347Z" fill="white"/>
</svg>
